<?xml version="1.0" encoding="UTF-8" standalone="no"?>
<svg
   width="32"
   height="32"
   viewBox="0 0 32 32"
   version="1.1"
   id="svg7"
   sodipodi:docname="forest.svg"
   inkscape:version="1.3 (0e150ed6c4, 2023-07-21)"
   xmlns:inkscape="http://www.inkscape.org/namespaces/inkscape"
   xmlns:sodipodi="http://sodipodi.sourceforge.net/DTD/sodipodi-0.dtd"
   xmlns="http://www.w3.org/2000/svg"
   xmlns:svg="http://www.w3.org/2000/svg">
  <defs
     id="defs7" />
  <sodipodi:namedview
     id="namedview7"
     pagecolor="#505050"
     bordercolor="#eeeeee"
     borderopacity="1"
     inkscape:showpageshadow="0"
     inkscape:pageopacity="0"
     inkscape:pagecheckerboard="0"
     inkscape:deskcolor="#505050"
     inkscape:zoom="18.203125"
     inkscape:cx="10.437768"
     inkscape:cy="17.277253"
     inkscape:window-width="2560"
     inkscape:window-height="1369"
     inkscape:window-x="-8"
     inkscape:window-y="-8"
     inkscape:window-maximized="1"
     inkscape:current-layer="svg7" />
  <!-- Forest - Multiple trees -->
  <!-- Left tree -->
  <polygon
     points="12,20 8,12 4,20 "
     fill="#2e7d32"
     id="polygon1"
     transform="matrix(1.3090129,0,0,1.3090129,-5.1364807,-6.3450639)"
     style="stroke-width:0.763934" />
  <polygon
     points="11,22 8,16 5,22 "
     fill="#388e3c"
     id="polygon2"
     transform="matrix(1.3090129,0,0,1.3090129,-5.1364807,-6.3450639)"
     style="stroke-width:0.763934" />
  <rect
     x="4.0266099"
     y="22.45322"
     width="2.6180258"
     height="7.8540773"
     fill="#5d4037"
     id="rect2"
     style="stroke-width:1" />
  <!-- Center tree (taller) -->
  <polygon
     points="20,14 16,6 12,14 "
     fill="#1b5e20"
     id="polygon3"
     transform="matrix(1.3090129,0,0,1.3090129,-5.1364807,-6.3450639)"
     style="stroke-width:0.763934" />
  <polygon
     points="19,16 16,10 13,16 "
     fill="#2e7d32"
     id="polygon4"
     transform="matrix(1.3090129,0,0,1.3090129,-5.1364807,-6.3450639)"
     style="stroke-width:0.763934" />
  <polygon
     points="19,20 16,14 13,20 "
     fill="#388e3c"
     id="polygon5"
     transform="matrix(1.3090129,0,0,1.3090129,-5.1364807,-6.3450639)"
     style="stroke-width:0.763934" />
  <rect
     x="14.498713"
     y="19.835194"
     width="2.6180258"
     height="10.472103"
     fill="#4e342e"
     id="rect5"
     style="stroke-width:1" />
  <!-- Right tree -->
  <polygon
     points="28,20 24,12 20,20 "
     fill="#2e7d32"
     id="polygon6"
     transform="matrix(1.3090129,0,0,1.3090129,-5.1364807,-6.3450639)"
     style="stroke-width:0.763934" />
  <polygon
     points="27,22 24,16 21,22 "
     fill="#388e3c"
     id="polygon7"
     transform="matrix(1.3090129,0,0,1.3090129,-5.1364807,-6.3450639)"
     style="stroke-width:0.763934" />
  <rect
     x="24.970818"
     y="22.45322"
     width="2.6180258"
     height="7.8540773"
     fill="#5d4037"
     id="rect7"
     style="stroke-width:1" />
</svg>
